<?xml version="1.0" encoding="UTF-8"?>
<svg id="svg115016" xmlns="http://www.w3.org/2000/svg" xmlns:svg="http://www.w3.org/2000/svg" xmlns:rdf="http://www.w3.org/1999/02/22-rdf-syntax-ns#" xmlns:dc="http://purl.org/dc/elements/1.1/" xmlns:cc="http://creativecommons.org/ns#" version="1.1" viewBox="0 0 581.3 50.6">
  <defs>
    <style>
      .cls-1 {
        fill: #c80473;
      }

      .cls-1, .cls-2, .cls-3 {
        stroke-width: 0px;
      }

      .cls-2 {
        fill: #342930;
      }

      .cls-3 {
        fill: #fef956;
      }
    </style>
  </defs>
  <g id="logo-center">
    <g id="title">
      <g id="path115025">
        <rect class="cls-2" x="0" y="0" width="21.7" height="49.6"/>
        <rect class="cls-3" x="0" y="24.8" width="49.6" height="24.8"/>
        <rect class="cls-1" y="24.8" width="21.7" height="24.8"/>
      </g>
      <g id="path115027">
        <rect class="cls-2" x="70.2" y="0" width="21.7" height="49.6"/>
        <rect class="cls-3" x="56.2" y="0" width="49.6" height="12.4"/>
        <rect class="cls-3" x="56.2" y="37.2" width="49.6" height="12.4"/>
        <rect class="cls-1" x="70.2" y="37.2" width="21.7" height="12.4"/>
        <rect class="cls-1" x="70.2" y="0" width="21.7" height="12.4"/>
      </g>
      <g id="path115029">
        <polygon class="cls-2" points="137.1 37.2 143.3 49.6 161.9 49.6 137.1 0 112.4 49.6 130.9 49.6 137.1 37.2"/>
      </g>
      <g id="path115031">
        <path class="cls-2" d="M204,0h0c-7.7,0-13.9,6.2-13.9,13.9v35.6h27.9V13.9C217.9,6.2,211.7,0,204,0Z"/>
        <path class="cls-3" d="M182.3,0h0c-7.7,0-13.9,6.2-13.9,13.9v35.6h27.9V13.9C196.2,6.2,190,0,182.3,0Z"/>
        <path class="cls-1" d="M193.1,5.2c-1.9,2.4-3.1,5.4-3.1,8.8v35.6h6.2V13.9c0-3.3-1.2-6.4-3.1-8.8Z"/>
      </g>
      <g id="path115033">
        <rect class="cls-2" x="266.4" y="0" width="21.7" height="49.6"/>
        <rect class="cls-3" x="252.5" y="0" width="49.6" height="24.8"/>
        <rect class="cls-1" x="266.4" y="0" width="21.7" height="24.8"/>
      </g>
      <g id="path115035">
        <rect class="cls-2" x="308.5" y="0" width="21.7" height="49.6"/>
        <rect class="cls-2" x="336.4" y="0" width="21.7" height="49.6"/>
        <rect class="cls-3" x="308.5" y="24.8" width="49.6" height="12.4"/>
        <rect class="cls-1" x="308.5" y="24.8" width="21.7" height="12.4"/>
        <rect class="cls-1" x="336.4" y="24.8" width="21.7" height="12.4"/>
      </g>
      <g id="path115039">
        <path class="cls-2" d="M455.4,0h0c-7.7,0-13.9,6.2-13.9,13.9v35.6h27.9V13.9C469.3,6.2,463.1,0,455.4,0Z"/>
        <path class="cls-3" d="M433.7,0h0c-7.7,0-13.9,6.2-13.9,13.9v35.6h27.9V13.9C447.6,6.2,441.4,0,433.7,0Z"/>
        <path class="cls-1" d="M444.5,5.2c-1.9,2.4-3.1,5.4-3.1,8.8v35.6h6.2V13.9c0-3.3-1.2-6.4-3.1-8.8Z"/>
      </g>
      <g id="path115041">
        <polygon class="cls-2" points="500.5 37.2 506.7 49.6 525.3 49.6 500.5 0 475.7 49.6 494.3 49.6 500.5 37.2"/>
      </g>
      <g id="path115043">
        <path class="cls-2" d="M562.7,12.4h-31v37.2h31c10.3,0,18.6-8.3,18.6-18.6s-8.3-18.6-18.6-18.6Z"/>
        <path class="cls-3" d="M544.1,0c-6.8,0-12.4,5.5-12.4,12.4s5.5,12.4,12.4,12.4h37.2V0h-37.2Z"/>
        <path class="cls-1" d="M562.7,12.4h-31c0,6.8,5.5,12.4,12.4,12.4h36.1c-2.6-7.2-9.4-12.4-17.5-12.4Z"/>
      </g>
    </g>
    <path class="cls-1" d="M368.4,12.9c.7-.9,1.5-2.1,2.4-3.2,9.5-10.8,26.2-11.1,36.2-.8,1.3,1.3,1.1,2.3.2,3.5-2.6,3.3-6.1,4.7-10.1,5.4-4.6.8-9,0-13.5-1.2-5-1.3-10.1-2.5-15.2-3.8Z"/>
    <path class="cls-1" d="M411.6,15.4c.6,1.8,1.1,3.4,1.5,5,.8,3,.4,4.2-2.2,5.9-3.9,2.7-8.3,3.8-13.1,3.5-4.5-.3-8.6-2-12.7-3.7-3.2-1.3-6.4-2.6-9.6-3.6-3.3-1-6.7-1.6-10.1-2.4,0,0,0,0,0-.2,1.1-4.4,1.1-4.6,5.6-3.4,3.1.8,6,2,8.9,3.3,5.1,2.3,10.3,3.9,16,3.4,5.9-.6,11.1-2.6,15-7.2.1-.1.3-.2.7-.5Z"/>
    <path class="cls-1" d="M413.2,31.1c-.7,3.9-2,7.1-4.4,9.6-1.2,1.2-3.5,1.6-5.4,1.8-4.4.6-8.6-.4-12.5-2.4-3.2-1.6-6.3-3.5-9.4-5.4-5.2-3.3-10.1-7.1-16.1-9.2-.5-.2-.6-1.3-.9-2,.2-.2.4-.4.6-.6,3.1.9,6.4,1.6,9.4,2.8,3.8,1.6,7.5,3.6,11.2,5.6,5,2.6,10.3,4.3,16,3.8,4-.4,7.6-1.6,11.4-3.8Z"/>
    <path class="cls-1" d="M365.3,29c1.9,1.4,3.7,2.7,5.6,4.1,4.2,3,8.3,6.1,12.6,8.9,5,3.2,10.4,5.4,16.6,5.8-4.5,3.3-13.8,4.1-21,.7-8.1-3.9-12.8-10.3-14.3-19.1.2-.1.3-.3.5-.4Z"/>
  </g>
</svg>